<svg xmlns="http://www.w3.org/2000/svg" xmlns:xlink="http://www.w3.org/1999/xlink" viewBox="0,0,256,256" width="104px" height="104px"><g fill-opacity="0.47843" fill="#119103" fill-rule="nonzero" stroke="none" stroke-width="1" stroke-linecap="butt" stroke-linejoin="miter" stroke-miterlimit="10" stroke-dasharray="" stroke-dashoffset="0" font-family="none" font-weight="none" font-size="none" text-anchor="none" style="mix-blend-mode: normal"><g transform="scale(9.84615,9.84615)"><path d="M16,0c-2.21094,0 -4.12109,0.91797 -5.3125,2.40625c-1.19141,1.48828 -1.6875,3.41797 -1.6875,5.5v1.09375h3v-1.09375c0,-1.57812 0.39063,-2.82031 1.03125,-3.625c0.64063,-0.80469 1.51172,-1.28125 2.96875,-1.28125c1.46094,0 2.32813,0.44922 2.96875,1.25c0.64063,0.80078 1.03125,2.05859 1.03125,3.65625v1.09375h3v-1.09375c0,-2.09375 -0.52734,-4.04297 -1.71875,-5.53125c-1.19141,-1.48828 -3.07422,-2.375 -5.28125,-2.375zM9,10c-1.65625,0 -3,1.34375 -3,3v10c0,1.65625 1.34375,3 3,3h14c1.65625,0 3,-1.34375 3,-3v-10c0,-1.65625 -1.34375,-3 -3,-3zM16,15c1.10547,0 2,0.89453 2,2c0,0.73828 -0.40234,1.37109 -1,1.71875v2.28125c0,0.55078 -0.44922,1 -1,1c-0.55078,0 -1,-0.44922 -1,-1v-2.28125c-0.59766,-0.34766 -1,-0.98047 -1,-1.71875c0,-1.10547 0.89453,-2 2,-2z"></path></g></g></svg>